HIERARCHY
ROOT Hips
{
	OFFSET 0.000000 0.000000 0.000000
	CHANNELS 6 Xposition Yposition Zposition Zrotation Yrotation Xrotation 
	JOINT LHipJoint
	{
		OFFSET 0.000000 0.000000 0.000000
		CHANNELS 3 Zrotation Yrotation Xrotation
		JOINT LeftUpLeg
		{
			OFFSET 1.363060 -1.794630 0.839290
			CHANNELS 3 Zrotation Yrotation Xrotation
			JOINT LeftLeg
			{
				OFFSET 2.448110 -6.726130 0.000000
				CHANNELS 3 Zrotation Yrotation Xrotation
				JOINT LeftFoot
				{
					OFFSET 2.562200 -7.039590 0.000000
					CHANNELS 3 Zrotation Yrotation Xrotation
					JOINT LeftToeBase
					{
						OFFSET 0.157640 -0.433110 2.322550
						CHANNELS 3 Zrotation Yrotation Xrotation
						End Site
						{
							OFFSET 0.000000 0.000000 0.000000
						}
					}
				}
			}
		}
	}
	JOINT RHipJoint
	{
		OFFSET 0.000000 0.000000 0.000000
		CHANNELS 3 Zrotation Yrotation Xrotation
		JOINT RightUpLeg
		{
			OFFSET -1.305520 -1.794630 0.839290
			CHANNELS 3 Zrotation Yrotation Xrotation
			JOINT RightLeg
			{
				OFFSET -2.542530 -6.985550 0.000000
				CHANNELS 3 Zrotation Yrotation Xrotation
				JOINT RightFoot
				{
					OFFSET -2.568260 -7.056230 0.000000
					CHANNELS 3 Zrotation Yrotation Xrotation
					JOINT RightToeBase
					{
						OFFSET -0.164730 -0.452590 2.363150
						CHANNELS 3 Zrotation Yrotation Xrotation
						End Site
						{
							OFFSET 0.000000 0.000000 0.000000
						}
					}
				}
			}
		}
	}
	JOINT LowerBack
	{
		OFFSET 0.000000 0.000000 0.000000
		CHANNELS 3 Zrotation Yrotation Xrotation
		JOINT Spine
		{
			OFFSET 0.028270 2.035590 -0.193380
			CHANNELS 3 Zrotation Yrotation Xrotation
			JOINT Spine1
			{
				OFFSET 0.056720 2.048850 -0.042750
				CHANNELS 3 Zrotation Yrotation Xrotation
				JOINT Neck
				{
					OFFSET 0.000000 0.000000 0.000000
					CHANNELS 3 Zrotation Yrotation Xrotation
					JOINT Neck1
					{
						OFFSET -0.054170 1.746240 0.172020
						CHANNELS 3 Zrotation Yrotation Xrotation
						JOINT Head
						{
							OFFSET 0.104070 1.761360 -0.123970
							CHANNELS 3 Zrotation Yrotation Xrotation
							End Site
							{
								OFFSET 0.000000 0.000000 0.000000
							}
						}
					}
				}
				JOINT LeftShoulder
				{
					OFFSET 0.000000 0.000000 0.000000
					CHANNELS 3 Zrotation Yrotation Xrotation
					JOINT LeftArm
					{
						OFFSET 3.362410 1.200890 -0.311210
						CHANNELS 3 Zrotation Yrotation Xrotation
						JOINT LeftForeArm
						{
							OFFSET 4.983000 -0.000000 -0.000000
							CHANNELS 3 Zrotation Yrotation Xrotation
							JOINT LeftHand
							{
								OFFSET 3.483560 -0.000000 -0.000000
								CHANNELS 3 Zrotation Yrotation Xrotation
								JOINT LeftFingerBase
								{
									OFFSET 0.000000 0.000000 0.000000
									CHANNELS 3 Zrotation Yrotation Xrotation
									JOINT LeftHandIndex1
									{
										OFFSET 0.715260 -0.000000 -0.000000
										CHANNELS 3 Zrotation Yrotation Xrotation
										End Site
										{
											OFFSET 0.000000 0.000000 0.000000
										}
									}
								}
								JOINT LThumb
								{
									OFFSET 0.000000 0.000000 0.000000
									CHANNELS 3 Zrotation Yrotation Xrotation
									End Site
									{
										OFFSET 0.000000 0.000000 0.000000
									}
								}
							}
						}
					}
				}
				JOINT RightShoulder
				{
					OFFSET 0.000000 0.000000 0.000000
					CHANNELS 3 Zrotation Yrotation Xrotation
					JOINT RightArm
					{
						OFFSET -3.136600 1.374050 -0.404650
						CHANNELS 3 Zrotation Yrotation Xrotation
						JOINT RightForeArm
						{
							OFFSET -5.241900 -0.000000 -0.000000
							CHANNELS 3 Zrotation Yrotation Xrotation
							JOINT RightHand
							{
								OFFSET -3.444170 -0.000000 -0.000000
								CHANNELS 3 Zrotation Yrotation Xrotation
								JOINT RightFingerBase
								{
									OFFSET 0.000000 0.000000 0.000000
									CHANNELS 3 Zrotation Yrotation Xrotation
									JOINT RightHandIndex1
									{
										OFFSET -0.622530 -0.000000 -0.000000
										CHANNELS 3 Zrotation Yrotation Xrotation
										End Site
										{
											OFFSET 0.000000 0.000000 0.000000
										}
									}
								}
								JOINT RThumb
								{
									OFFSET 0.000000 0.000000 0.000000
									CHANNELS 3 Zrotation Yrotation Xrotation
									End Site
									{
										OFFSET 0.000000 0.000000 0.000000
									}
								}
							}
						}
					}
				}
			}
		}
	}
}
MOTION
Frames: 10
Frame Time: 0.008333
3.414167 17.237614 2.959485 -103.509591 -82.332041 144.419444 -9.766056 -1.866917 -1.205223 -13.167333 2.493498 -49.270946 -3.435473 -1.448684 7.500462 0.962595 4.435178 -3.390584 0.813200 0.000001 -33.525700 5.731156 -0.543028 14.808837 -9.595991 21.176080 -112.099504 6.780009 4.851232 -9.328872 1.319737 1.329225 9.807530 -1.474500 -0.000000 -71.070700 11.615150 -3.318601 -8.532118 1.777619 -4.561439 -4.512187 -7.386485 -4.612474 1.874053 12.469720 -15.229039 -13.998134 -2.709602 -0.109263 -2.007499 0.000000 0.000000 0.000000 4.028118 7.014326 3.195858 -42.473817 3.565821 -36.326905 -1.145068 -59.357752 -0.081435 21.737675 -4.268400 -0.880352 -0.232204 0.273303 0.000000 0.000000 0.000000 0.000000 0.000000 0.000000 0.000000 15.354399 -13.329478 2.452008 55.511348 0.228744 -33.797262 1.114688 55.527432 -0.028875 -14.182499 10.841559 -1.405279 0.191933 -0.275233 -0.000000 0.000000 0.000000 0.000000 0.000000 0.000000 0.000000 
3.417517 17.244093 2.957242 -103.833371 -82.439645 144.353729 -9.721635 -1.781307 -1.169187 -13.276541 2.462224 -48.647251 -3.426987 -1.482535 7.106704 0.962947 4.518015 -3.227676 0.836200 0.000000 -33.472500 5.686199 -0.380858 14.509494 -9.016632 21.058725 -109.814786 6.616066 5.009618 -10.388710 1.298748 1.350897 9.758870 -1.420500 -0.000001 -71.185500 11.219285 -3.391937 -8.366285 1.694850 -4.601151 -4.453589 -7.370399 -4.653116 1.889080 12.270910 -15.126346 -13.793496 -2.744055 -0.115503 -1.940125 0.000000 0.000000 0.000000 4.238440 6.855004 3.141265 -42.395806 3.258166 -36.492183 -1.097650 -60.606984 -0.085323 21.717695 -4.187421 -0.866093 -0.237978 0.284612 0.000000 0.000000 0.000000 0.000000 0.000000 0.000000 0.000000 15.298078 -13.275845 2.417155 55.424714 0.482832 -33.405413 1.127880 54.881809 -0.028909 -14.188259 10.836246 -1.404883 0.190872 -0.274318 -0.000000 0.000000 0.000000 0.000000 0.000000 0.000000 0.000000 
3.418414 17.251706 2.955884 -103.708702 -82.595660 143.768114 -9.702674 -1.706814 -1.119796 -13.352792 2.403230 -47.933600 -3.407613 -1.517238 6.716833 0.964011 4.609724 -3.068829 0.859000 0.000000 -33.404700 5.646380 -0.239105 14.181559 -8.267917 20.908125 -107.292343 6.426397 5.157332 -11.424084 1.188578 0.983671 9.674273 -1.522100 0.000001 -71.388700 10.819981 -3.475880 -8.200482 1.614531 -4.650063 -4.397081 -7.342413 -4.702998 1.898562 12.074734 -15.033297 -13.598005 -2.772150 -0.121022 -1.875222 0.000000 0.000000 0.000000 4.452048 6.691749 3.086846 -42.393783 2.949332 -36.562246 -1.051713 -61.879009 -0.089130 21.642163 -4.081360 -0.844932 -0.243431 0.296066 0.000000 0.000000 0.000000 0.000000 0.000000 0.000000 0.000000 15.209302 -13.222375 2.383392 55.310116 0.651511 -32.951073 1.139914 54.394766 -0.028844 -14.184255 10.840896 -1.404984 0.190182 -0.273651 -0.000000 0.000000 0.000000 0.000000 0.000000 0.000000 0.000000 
3.417203 17.260136 2.954493 -103.253596 -82.791837 142.784427 -9.699666 -1.637650 -1.063860 -13.406751 2.322056 -47.130455 -3.379320 -1.551256 6.336015 0.966940 4.715284 -2.918856 0.881500 0.000000 -33.331600 5.621784 -0.113225 13.826416 -7.366894 20.721529 -104.588129 6.216188 5.272051 -12.346545 1.005467 0.276396 9.593360 -1.756800 -0.000000 -71.623500 10.403481 -3.565476 -8.025520 1.532494 -4.701903 -4.340927 -7.306016 -4.755963 1.901559 11.887956 -14.946511 -13.412835 -2.793430 -0.125741 -1.813431 0.000000 0.000000 0.000000 4.664014 6.537767 3.032217 -42.430010 2.615554 -36.541753 -1.007369 -63.144983 -0.092862 21.522961 -3.954363 -0.818167 -0.248583 0.307624 0.000000 0.000000 0.000000 0.000000 0.000000 0.000000 0.000000 15.092760 -13.164209 2.350970 55.186825 0.726785 -32.452850 1.149441 54.078669 -0.028704 -14.171787 10.856905 -1.405679 0.189761 -0.273234 -0.000000 0.000000 0.000000 0.000000 0.000000 0.000000 0.000000 
3.413964 17.268945 2.952625 -102.540909 -83.018162 141.483316 -9.707530 -1.570011 -1.004121 -13.448960 2.229103 -46.257839 -3.345501 -1.582636 5.977877 0.971008 4.827052 -2.785924 0.902200 0.000000 -33.258000 5.618427 -0.004365 13.450929 -6.335211 20.491299 -101.766319 5.996303 5.338098 -13.083344 0.770564 -0.689652 9.549630 -2.092300 -0.000000 -71.810000 9.967618 -3.654008 -7.843675 1.447545 -4.750109 -4.285859 -7.263176 -4.805454 1.898212 11.710233 -14.867129 -13.238093 -2.806962 -0.129588 -1.754759 0.000000 0.000000 0.000000 4.861206 6.400557 2.976537 -42.471463 2.241811 -36.433717 -0.964829 -64.379425 -0.096474 21.375208 -3.814818 -0.788003 -0.253409 0.319102 0.000000 0.000000 0.000000 0.000000 0.000000 0.000000 0.000000 14.944566 -13.101265 2.320205 55.070309 0.705316 -31.931703 1.155704 53.934686 -0.028513 -14.151814 10.885233 -1.407272 0.189547 -0.273107 -0.000000 0.000000 0.000000 0.000000 0.000000 0.000000 0.000000 
3.408493 17.277734 2.949978 -101.633683 -83.265090 139.940169 -9.722253 -1.500041 -0.940691 -13.490060 2.133891 -45.340448 -3.309847 -1.610131 5.653667 0.975164 4.935576 -2.676713 0.919100 0.000000 -33.182500 5.640035 0.085296 13.063512 -5.203488 20.205729 -98.889411 5.778686 5.346010 -13.580362 0.508254 -1.808352 9.566261 -2.489899 0.000000 -71.871500 9.512695 -3.734912 -7.662607 1.359317 -4.788752 -4.233373 -7.215028 -4.845496 1.890116 11.539080 -14.797688 -13.073194 -2.811828 -0.132516 -1.698886 0.000000 0.000000 0.000000 5.032279 6.287321 2.918699 -42.491970 1.817018 -36.240196 -0.924300 -65.558591 -0.099924 21.214485 -3.673609 -0.757539 -0.257922 0.330335 0.000000 0.000000 0.000000 0.000000 0.000000 0.000000 0.000000 14.759935 -13.035497 2.291036 54.970599 0.590650 -31.408564 1.158394 53.951145 -0.028290 -14.124972 10.925434 -1.409662 0.189502 -0.273313 -0.000000 0.000000 0.000000 0.000000 0.000000 0.000000 0.000000 
3.400751 17.286280 2.946188 -100.629211 -83.524742 138.262678 -9.738100 -1.423485 -0.872908 -13.535786 2.035821 -44.387105 -3.273547 -1.634408 5.356807 0.980695 5.048128 -2.589158 0.933599 -0.000000 -33.107400 5.689475 0.157566 12.668542 -4.019361 19.850472 -96.005047 5.570275 5.290750 -13.803171 0.242695 -2.966529 9.654417 -2.909399 0.000000 -71.754800 9.034485 -3.803089 -7.486180 1.266199 -4.812888 -4.183853 -7.163550 -4.871087 1.878640 11.375344 -14.739258 -12.916731 -2.808125 -0.134571 -1.645339 0.000000 0.000000 0.000000 5.172894 6.200808 2.857795 -42.472526 1.338357 -35.968970 -0.885536 -66.664697 -0.103211 21.056436 -3.539465 -0.728677 -0.262167 0.341203 0.000000 0.000000 0.000000 0.000000 0.000000 0.000000 0.000000 14.542075 -12.968179 2.263366 54.895016 0.394969 -30.904758 1.157383 54.106396 -0.028056 -14.092125 10.975713 -1.412849 0.189560 -0.273846 -0.000000 0.000000 0.000000 0.000000 0.000000 0.000000 0.000000 
3.390537 17.294398 2.941112 -99.589135 -83.790917 136.524899 -9.751619 -1.337871 -0.798360 -13.589990 1.935134 -43.412301 -3.238060 -1.656214 5.082749 0.987964 5.166396 -2.521822 0.946301 0.000000 -33.029900 5.767054 0.212565 12.271824 -2.840687 19.413447 -93.155196 5.375450 5.172408 -13.736081 -0.004430 -4.057705 9.809165 -3.312101 0.000000 -71.449600 8.534193 -3.854624 -7.322266 1.168158 -4.819261 -4.138329 -7.109592 -4.878883 1.866062 11.217391 -14.693819 -12.767104 -2.795930 -0.135811 -1.593508 0.000000 0.000000 0.000000 5.280105 6.142798 2.792826 -42.404021 0.807433 -35.627433 -0.848395 -67.683993 -0.106330 20.915199 -3.420895 -0.703517 -0.266200 0.351605 0.000000 0.000000 0.000000 0.000000 0.000000 0.000000 0.000000 14.292096 -12.902188 2.236854 54.845075 0.134782 -30.438572 1.152966 54.370796 -0.027837 -14.054704 11.032775 -1.416434 0.189691 -0.274700 -0.000000 0.000000 0.000000 0.000000 0.000000 0.000000 0.000000 
3.377897 17.302033 2.934792 -98.565906 -84.058745 134.786750 -9.760102 -1.242241 -0.714919 -13.653316 1.830041 -42.425631 -3.203803 -1.676448 4.823766 0.997595 5.294784 -2.470230 0.958600 0.000000 -32.947800 5.871039 0.251655 11.877687 -1.735183 18.890159 -90.368907 5.192933 4.994568 -13.379038 -0.217684 -4.999665 10.009391 -3.664900 -0.000000 -70.987401 8.014653 -3.887441 -7.176755 1.065594 -4.806386 -4.097346 -7.053869 -4.867309 1.854356 11.064111 -14.662592 -12.622460 -2.775801 -0.136337 -1.542725 0.000000 0.000000 0.000000 5.354238 6.112022 2.723033 -42.284362 0.232075 -35.226003 -0.812636 -68.608602 -0.109311 20.802319 -3.323778 -0.683561 -0.270065 0.361476 0.000000 0.000000 0.000000 0.000000 0.000000 0.000000 0.000000 14.013378 -12.840174 2.211071 54.819498 -0.169762 -30.024606 1.145694 54.711006 -0.027652 -14.013945 11.092549 -1.420018 0.189854 -0.275843 -0.000000 0.000000 0.000000 0.000000 0.000000 0.000000 0.000000 
3.362748 17.309195 2.927274 -97.587314 -84.324714 133.086741 -9.762055 -1.136836 -0.620512 -13.722905 1.716684 -41.432839 -3.170448 -1.696289 4.569704 1.010313 5.439046 -2.428713 0.971900 0.000000 -32.860500 5.998154 0.276593 11.490339 -0.774029 18.288196 -87.663142 5.016509 4.763970 -12.745607 -0.389620 -5.744228 10.221930 -3.944100 0.000000 -70.428900 7.480151 -3.900970 -7.054727 0.959293 -4.774283 -4.061277 -6.997079 -4.836324 1.845151 10.914881 -14.644722 -12.480498 -2.748786 -0.136293 -1.492284 0.000000 0.000000 0.000000 5.398316 6.105089 2.648050 -42.117810 -0.374110 -34.776267 -0.778024 -69.436737 -0.112184 20.727127 -3.250874 -0.669309 -0.273826 0.370757 0.000000 0.000000 0.000000 0.000000 0.000000 0.000000 0.000000 13.711305 -12.783204 2.185592 54.813267 -0.497217 -29.673396 1.136219 55.093317 -0.027523 -13.972269 11.150481 -1.423200 0.190031 -0.277227 -0.000000 0.000000 0.000000 0.000000 0.000000 0.000000 0.000000 
